{"asset":{"version":"2.0"},"scene":0,"scenes":[{"nodes":[0,1]}],"nodes":[{"name":"window","mesh":0},{"name":"target","mesh":1}],"meshes":[{"name":"window","primitives":[{"attributes":{"POSITION":4},"indices":5,"material":0}]},{"name":"target","primitives":[{"attributes":{"POSITION":2},"indices":3,"material":1}]}],"materials":[{"name":"Window","doubleSided":true,"pbrMetallicRoughness":{"baseColorFactor":[0,0,0,1],"metallicFactor":0,"roughnessFactor":0}},{"name":"Target","doubleSided":true,"pbrMetallicRoughness":{"baseColorFactor":[0,0,0,1],"metallicFactor":0,"roughnessFactor":1}}],"buffers":[{"byteLength":71760,"uri":"data:application/octet-stream;base64,"}],"bufferViews":[{"buffer":0,"byteOffset":0,"byteLength":96},{"buffer":0,"byteOffset":96,"byteLength":144},{"buffer":0,"byteOffset":240,"byteLength":48},{"buffer":0,"byteOffset":288,"byteLength":24},{"buffer":0,"byteOffset":312,"byteLength":23832},{"buffer":0,"byteOffset":24144,"byteLength":47616}],"accessors":[{"bufferView":0,"componentType":5126,"count":8,"type":"VEC3","min":[-10,-10,0.5],"max":[10,10,0.7]},{"bufferView":1,"componentType":5125,"count":36,"type":"SCALAR"},{"bufferView":2,"componentType":5126,"count":4,"type":"VEC3","min":[-20,-20,0],"max":[20,20,0]},{"bufferView":3,"componentType":5125,"count":6,"type":"SCALAR"},{"bufferView":4,"componentType":5126,"count":1986,"type":"VEC3","min":[-0.3,-0.3,0.3],"max":[0.3,0.3,0.8999999999999999]},{"bufferView":5,"componentType":5125,"count":11904,"type":"SCALAR"}]}