{"asset": {"version": "2.0"}, "scene": 0, "scenes": [{"nodes": [0]}], "nodes": [{"name": "plate", "mesh": 0}], "meshes": [{"primitives": [{"attributes": {"POSITION": 0}, "indices": 1, "material": 0}]}], "materials": [{"name": "mat", "pbrMetallicRoughness": {"baseColorFactor": [0.6, 0.3, 0.2, 1], "metallicFactor": 0, "roughnessFactor": 1}}], "buffers": [{"byteLength": 60, "uri": "data:application/octet-stream;base64,"}], "bufferViews": [{"buffer": 0, "byteOffset": 0, "byteLength": 48}, {"buffer": 0, "byteOffset": 48, "byteLength": 12}], "accessors": [{"bufferView": 0, "componentType": 5126, "count": 4, "type": "VEC3", "min": [-1, -1, 0], "max": [1, 1, 0]}, {"bufferView": 1, "componentType": 5123, "count": 6, "type": "SCALAR"}]}