{
  "asset": {
    "version": "2.0",
    "generator": "generate_camouflage_scene.py"
  },
  "extensionsUsed": [
    "QUANTILOOM_material_ir"
  ],
  "scene": 0,
  "scenes": [
    {
      "nodes": [
        0
      ]
    }
  ],
  "nodes": [
    {
      "mesh": 0,
      "name": "CamouflageGround"
    }
  ],
  "meshes": [
    {
      "name": "CamouflageGround",
      "primitives": [
        {
          "attributes": {
            "POSITION": 1,
            "NORMAL": 2
          },
          "indices": 0,
          "material": 0
        },
        {
          "attributes": {
            "POSITION": 1,
            "NORMAL": 2
          },
          "indices": 3,
          "material": 1
        }
      ]
    }
  ],
  "materials": [
    {
      "name": "DesertGround",
      "pbrMetallicRoughness": {
        "baseColorFactor": [
          0.62,
          0.52,
          0.36,
          1.0
        ],
        "metallicFactor": 0.0,
        "roughnessFactor": 1.0
      },
      "doubleSided": false,
      "extensions": {
        "QUANTILOOM_material_ir": {
          "emissivityCurve": "camo_ground_emissivity.csv",
          "temperature_K": 320.0
        }
      }
    },
    {
      "name": "CamouflageTarget",
      "pbrMetallicRoughness": {
        "baseColorFactor": [
          0.62,
          0.52,
          0.36,
          1.0
        ],
        "metallicFactor": 0.0,
        "roughnessFactor": 1.0
      },
      "doubleSided": false,
      "extensions": {
        "QUANTILOOM_material_ir": {
          "emissivityCurve": "camo_target_emissivity.csv",
          "temperature_K": 320.0
        }
      }
    }
  ],
  "accessors": [
    {
      "bufferView": 0,
      "componentType": 5125,
      "count": 6,
      "type": "SCALAR",
      "byteOffset": 0
    },
    {
      "bufferView": 1,
      "componentType": 5126,
      "count": 8,
      "type": "VEC3",
      "min": [
        -30.0,
        0.0,
        -30.0
      ],
      "max": [
        30.0,
        0.01,
        30.0
      ]
    },
    {
      "bufferView": 2,
      "componentType": 5126,
      "count": 8,
      "type": "VEC3"
    },
    {
      "bufferView": 0,
      "componentType": 5125,
      "count": 6,
      "type": "SCALAR",
      "byteOffset": 24
    }
  ],
  "bufferViews": [
    {
      "buffer": 0,
      "byteOffset": 0,
      "byteLength": 48,
      "target": 34963
    },
    {
      "buffer": 0,
      "byteOffset": 48,
      "byteLength": 96,
      "target": 34962
    },
    {
      "buffer": 0,
      "byteOffset": 144,
      "byteLength": 96,
      "target": 34962
    }
  ],
  "buffers": [
    {
      "uri": "camouflage_flat.bin",
      "byteLength": 240
    }
  ]
}