{
  "asset": {
    "version": "2.0",
    "generator": "generate_furnace_cavity.py"
  },
  "extensionsUsed": [
    "QUANTILOOM_material_ir"
  ],
  "scene": 0,
  "scenes": [
    {
      "nodes": [
        0
      ]
    }
  ],
  "nodes": [
    {
      "mesh": 0
    }
  ],
  "meshes": [
    {
      "primitives": [
        {
          "attributes": {
            "POSITION": 1,
            "NORMAL": 2
          },
          "indices": 0,
          "material": 0
        }
      ]
    }
  ],
  "materials": [
    {
      "name": "furnace_e05",
      "pbrMetallicRoughness": {
        "baseColorFactor": [
          0.5,
          0.5,
          0.5,
          1.0
        ],
        "metallicFactor": 0.0,
        "roughnessFactor": 1.0
      },
      "doubleSided": true,
      "extensions": {
        "QUANTILOOM_material_ir": {
          "emissivityCurve": "furnace_e05_emissivity.csv",
          "temperature_K": 300.0
        }
      }
    }
  ],
  "accessors": [
    {
      "bufferView": 0,
      "componentType": 5123,
      "count": 36,
      "type": "SCALAR"
    },
    {
      "bufferView": 1,
      "componentType": 5126,
      "count": 36,
      "type": "VEC3",
      "min": [
        -2.0,
        -2.0,
        -2.0
      ],
      "max": [
        2.0,
        2.0,
        2.0
      ]
    },
    {
      "bufferView": 2,
      "componentType": 5126,
      "count": 36,
      "type": "VEC3"
    }
  ],
  "bufferViews": [
    {
      "buffer": 0,
      "byteOffset": 0,
      "byteLength": 72,
      "target": 34963
    },
    {
      "buffer": 0,
      "byteOffset": 72,
      "byteLength": 432,
      "target": 34962
    },
    {
      "buffer": 0,
      "byteOffset": 504,
      "byteLength": 432,
      "target": 34962
    }
  ],
  "buffers": [
    {
      "uri": "furnace_e05.bin",
      "byteLength": 936
    }
  ]
}